<?xml version="1.0" encoding="UTF-8" standalone="no"?>
<svg width="452px" height="182px" viewBox="0 0 452 182" version="1.1" xmlns="http://www.w3.org/2000/svg" xmlns:xlink="http://www.w3.org/1999/xlink">
    <!-- Generator: Sketch 42 (36781) - http://www.bohemiancoding.com/sketch -->
    <title>Drift_logo_black</title>
    <desc>Created with Sketch.</desc>
    <defs></defs>
    <g id="Final" stroke="none" stroke-width="1" fill="none" fill-rule="evenodd">
        <g id="Drift-Home-Copy" transform="translate(-419.000000, -1454.000000)" fill-rule="nonzero" fill="#000000">
            <g id="Drift_logo_black" transform="translate(419.000000, 1454.000000)">
                <g id="Branding">
                    <g id="Logo">
                        <g id="Blue-Inverted" transform="translate(0.273830, 0.406581)">
                            <g id="Group" transform="translate(196.115646, 47.972094)">
                                <path d="M0.617687075,4.33296337 C0.617687075,3.09497384 1.54421769,2.011733 2.77959184,2.011733 L32.1197279,2.011733 C55.2829932,2.011733 74.2768707,20.8910734 74.2768707,44.1033772 C74.2768707,67.4704297 55.2829932,86.3497701 32.1197279,86.3497701 L2.77959184,86.3497701 C1.54421769,86.3497701 0.617687075,85.2665293 0.617687075,84.0285397 L0.617687075,4.33296337 L0.617687075,4.33296337 Z M31.9653061,68.5536705 C45.5544218,68.5536705 54.3564626,57.8760108 54.3564626,44.1033772 C54.3564626,30.4854923 45.5544218,19.8078326 31.9653061,19.8078326 L19.3027211,19.8078326 L19.3027211,68.5536705 L31.9653061,68.5536705 L31.9653061,68.5536705 Z" id="Fill-6"></path>
                                <path d="M84.0054422,33.7352148 C84.0054422,32.1877279 85.2408163,31.1044871 86.6306122,31.1044871 L92.3442177,31.1044871 C93.7340136,31.1044871 94.5061224,31.8782305 94.814966,32.8067227 L97.2857143,38.9966704 C99.7564626,34.5089583 103.92585,30.0212462 111.183673,30.0212462 C116.279592,30.0212462 119.985714,31.4139845 121.993197,32.9614714 C122.919728,33.7352148 122.919728,34.8184557 122.302041,35.9016965 L116.742857,46.8888537 C116.12517,47.9720945 115.198639,48.745838 113.654422,48.2815919 C112.727891,47.9720945 110.720408,47.5078484 109.485034,47.5078484 C105.315646,47.5078484 102.072789,50.4480736 102.072789,55.245283 L102.072789,84.4927858 C102.072789,86.1950214 101.146259,87.1235136 99.1387755,87.1235136 L86.4761905,87.1235136 C85.0863946,87.1235136 83.8510204,85.885524 83.8510204,84.4927858 L83.8510204,33.7352148" id="Fill-7"></path>
                                <path d="M130.331973,12.6893927 C130.331973,6.96369114 134.964626,2.011733 140.678231,2.011733 C146.391837,2.011733 151.178912,6.80894244 151.178912,12.6893927 C151.178912,18.4150943 146.546259,23.0575551 140.678231,23.0575551 C134.964626,23.0575551 130.331973,18.2603456 130.331973,12.6893927 L130.331973,12.6893927 Z M131.721769,33.4257175 C131.721769,31.8782305 132.957143,30.7949897 134.346939,30.7949897 L147.318367,30.7949897 C148.708163,30.7949897 149.943537,31.8782305 149.943537,33.4257175 L149.943537,83.873791 C149.943537,85.2665293 148.708163,86.5045188 147.318367,86.5045188 L134.346939,86.5045188 C132.957143,86.5045188 131.721769,85.2665293 131.721769,83.873791 L131.721769,33.4257175 L131.721769,33.4257175 Z" id="Fill-8"></path>
                                <path d="M168.628571,46.8888537 L163.841497,46.8888537 C162.297279,46.8888537 161.216327,45.6508641 161.216327,44.2581259 L161.216327,32.9614714 C161.216327,31.4139845 162.297279,30.3307436 163.841497,30.3307436 L168.628571,30.3307436 L168.628571,25.6882829 C168.628571,10.6776597 176.504082,0.309497384 192.563946,0.309497384 C199.821769,0.309497384 207.079592,3.24972253 209.55034,5.57095291 C210.322449,6.18994768 210.631293,7.5826859 210.013605,8.66592675 L204.145578,19.0340891 C203.527891,19.9625813 202.292517,20.4268273 201.211565,19.8078326 C199.358503,18.7245917 196.733333,17.6413509 193.953741,17.6413509 C187.622449,17.6413509 187.004762,21.2005708 187.004762,25.5335342 L187.004762,30.1759949 L200.902721,30.1759949 C202.292517,30.1759949 203.527891,31.2592358 203.527891,32.8067227 L203.527891,43.9486285 C203.527891,45.3413667 202.292517,46.5793563 200.902721,46.5793563 L187.004762,46.5793563 L187.004762,83.1000476 C187.004762,84.4927858 185.614966,85.7307753 184.22517,85.7307753 L171.408163,85.7307753 C170.018367,85.7307753 168.782993,84.4927858 168.782993,83.1000476 L168.628571,46.8888537" id="Fill-9"></path>
                                <path d="M220.668707,47.5078484 L216.036054,47.5078484 C214.646259,47.5078484 213.565306,46.2698589 213.565306,44.8771207 L213.565306,33.7352148 C213.565306,32.1877279 214.646259,31.1044871 216.036054,31.1044871 L220.668707,31.1044871 L220.668707,15.6296179 C220.668707,14.2368797 221.904082,12.9988901 223.293878,12.9988901 L236.57415,12.9988901 C237.963946,12.9988901 239.044898,14.2368797 239.044898,15.6296179 L239.044898,31.1044871 L250.163265,31.1044871 C251.553061,31.1044871 252.788435,32.1877279 252.788435,33.7352148 L252.788435,44.8771207 C252.788435,46.2698589 251.553061,47.5078484 250.163265,47.5078484 L239.044898,47.5078484 L239.044898,66.8514349 C239.044898,69.4821627 240.434694,70.7201522 242.75102,70.7201522 C244.604082,70.7201522 248.310204,69.9464088 249.545578,69.4821627 C250.935374,69.1726653 252.32517,69.7916601 252.634014,71.1843983 L255.104762,81.7073093 C255.413605,83.409545 254.795918,84.1832884 253.251701,84.8022832 C249.545578,86.3497701 243.214286,87.897257 237.346259,87.897257 C226.691156,87.897257 220.668707,81.0883146 220.668707,68.5536705 L220.668707,47.5078484" id="Fill-10"></path>
                            </g>
                            <g id="Fill-12">
                                <path d="M90.8,0.464246076 C40.9217687,0.464246076 0.617687075,41.0084034 0.617687075,90.8374822 C0.617687075,140.82131 41.0761905,181.210718 90.8,181.210718 C140.678231,181.210718 180.982313,140.666561 180.982313,90.8374822 C180.982313,41.0084034 140.678231,0.464246076 90.8,0.464246076 L90.8,0.464246076 Z M88.0204082,113.58554 C88.0204082,114.978278 87.2482993,116.216268 86.1673469,116.990011 C84.9319728,117.609006 83.5421769,117.609006 82.4612245,116.990011 L82.4612245,116.990011 L66.4013605,107.70509 L66.4013605,142.523545 C66.4013605,143.916283 65.6292517,145.154273 64.5482993,145.928016 C63.9306122,146.237514 63.3129252,146.392263 62.6952381,146.392263 C62.077551,146.392263 61.3054422,146.237514 60.8421769,145.928016 L51.2680272,140.357064 C50.0326531,139.738069 49.414966,138.345331 49.414966,136.952592 L49.414966,97.8011733 L33.9727891,88.8257492 C32.737415,88.2067544 32.1197279,86.8140162 32.1197279,85.4212779 L32.1197279,70.1011574 C32.1197279,68.7084192 32.8918367,67.4704297 33.9727891,66.6966862 C35.2081633,66.0776915 36.5979592,66.0776915 37.8333333,66.6966862 L86.4761905,95.1704455 C87.7115646,95.7894403 88.3292517,97.1821785 88.3292517,98.5749168 L88.3292517,113.58554 L88.0204082,113.58554 L88.0204082,113.58554 Z M88.792517,53.5430474 C88.792517,55.4000317 87.7115646,57.257016 86.1673469,58.1855082 L72.114966,66.3871888 C71.6517007,66.6966862 71.3428571,67.1609323 71.3428571,67.6251784 L71.3428571,78.1480894 C71.3428571,79.2313303 70.107483,80.0050737 69.1809524,79.386079 C63.3129252,75.9816077 47.0986395,66.5419375 41.2306122,63.1374663 C40.3040816,62.5184715 40.3040816,61.1257333 41.2306122,60.5067385 L83.0789116,36.0564452 C84.3142857,35.4374505 85.7040816,35.4374505 86.9394558,36.0564452 C88.1748299,36.67544 88.792517,38.0681782 88.792517,39.4609164 L88.792517,53.5430474 L88.792517,53.5430474 Z M93.5795918,39.4609164 C93.5795918,38.0681782 94.3517007,36.8301887 95.4326531,36.0564452 C96.6680272,35.4374505 98.0578231,35.4374505 99.2931973,36.0564452 L141.141497,60.5067385 C142.222449,61.1257333 142.222449,62.5184715 141.141497,63.1374663 C135.273469,66.5419375 119.213605,75.9816077 113.191156,79.386079 C112.110204,80.0050737 110.87483,79.2313303 110.87483,77.9933407 L110.87483,67.6251784 C110.87483,67.0061836 110.565986,66.5419375 110.102721,66.2324401 L95.4326531,57.5665134 C94.1972789,56.9475186 93.5795918,55.5547804 93.5795918,54.1620422 L93.5795918,39.4609164 L93.5795918,39.4609164 Z M149.943537,85.1117806 C149.943537,86.5045188 149.171429,87.7425083 148.090476,88.5162518 L132.648299,97.4916759 L132.648299,136.643095 C132.648299,138.035833 131.87619,139.273823 130.795238,140.047566 L121.221088,145.618519 C120.603401,145.928016 119.985714,146.082765 119.368027,146.082765 C118.75034,146.082765 117.978231,145.928016 117.514966,145.618519 C116.279592,144.999524 115.661905,143.606786 115.661905,142.214048 L115.661905,107.395592 L99.6020408,116.680514 L99.6020408,116.680514 C98.3666667,117.299508 96.9768707,117.299508 95.8959184,116.680514 C94.6605442,116.061519 94.0428571,114.668781 94.0428571,113.276042 L94.0428571,98.2654194 C94.0428571,96.8726811 94.814966,95.6346916 95.8959184,94.8609482 L144.538776,66.3871888 C145.77415,65.7681941 147.163946,65.7681941 148.39932,66.3871888 C149.634694,67.0061836 150.252381,68.3989218 150.252381,69.7916601 L150.252381,85.1117806 L149.943537,85.1117806 L149.943537,85.1117806 Z" id="Shape"></path>
                            </g>
                        </g>
                    </g>
                </g>
            </g>
        </g>
    </g>
</svg>